<svg width="433" height="410" viewBox="0 0 433 410" fill="none" xmlns="http://www.w3.org/2000/svg">
<mask id="mask0_88_1095" style="mask-type:alpha" maskUnits="userSpaceOnUse" x="0" y="0" width="433" height="410">
<path d="M172.5 368.5C104.517 360.964 46 367.353 0 391V0H433V405C307.5 424.464 257.479 377.919 172.5 368.5Z" fill="#D9D9D9"/>
</mask>
<g mask="url(#mask0_88_1095)">
<path d="M375.826 281.678C375.826 281.678 383.803 456.602 381.284 456.602C376.03 456.602 332.356 456.09 332.356 456.09L339.525 241.036L365.896 224.352L375.826 281.678" fill="#EE6161"/>
<path d="M274.978 298.661C274.978 298.661 268.058 452.63 268.634 456.09C269.212 459.55 333.252 459.119 337.851 459.046C342.447 458.973 354.846 249.973 354.846 249.973L365.896 240.982V213.892L339.525 199.831L294.008 210.321L274.978 298.661" fill="#EE6161"/>
<path d="M339.523 453.298C339.866 453.298 340.151 453.03 340.17 452.684L351.325 250.454L366.094 245.648C366.433 245.539 366.622 245.172 366.509 244.832C366.399 244.491 366.037 244.306 365.691 244.415L350.5 249.357C350.246 249.44 350.068 249.67 350.054 249.938L338.876 452.613C338.856 452.971 339.129 453.277 339.487 453.296C339.499 453.298 339.511 453.298 339.523 453.298" fill="#F79595"/>
<path d="M369.62 122.945C369.62 122.945 368.473 32.3393 343.733 29.8793C318.994 27.4175 316.105 44.8038 316.105 44.8038C316.105 44.8038 308.325 44.3021 302.64 63.9132C300 73.0233 296.156 104.758 296.156 104.758L347.134 112.1L369.62 122.945Z" fill="#4F4645"/>
<path d="M310.732 219.401C310.732 219.401 360.323 223.094 368.108 205.573C375.893 188.052 351.063 99.4542 351.063 99.4542C351.063 99.4542 352.31 92.3232 344.063 92.0845C335.816 91.8423 326.473 88.8113 321.196 92.0845C315.922 95.3559 310.732 219.401 310.732 219.401" fill="#4F4645"/>
<path d="M326.727 77.3158L326.767 94.491C326.767 94.491 327.812 99.1862 337.863 99.9785C345.349 100.568 348.973 97.2521 348.973 97.2521L347.925 81.9296L329.772 77.9818L326.727 77.3158" fill="#F9C9C2"/>
<path d="M326.752 76.2683C326.795 76.7371 326.976 77.289 327.255 77.9239C331.116 86.4942 344.648 90.032 348.973 90.4092L347.925 81.9288L326.752 76.2683" fill="#4F4645"/>
<path d="M351.661 42.7724C351.661 42.7724 360.724 64.2847 357.2 76.2579C353.675 88.2294 342.753 86.1949 336.231 83.7851C329.713 81.3769 326.723 77.3184 326.723 77.3184C326.723 77.3184 320.577 79.313 316.56 73.5695C312.543 67.826 315.148 61.3247 318.662 59.8733C322.175 58.4218 326.296 60.9977 326.296 60.9977L323.122 54.7404C323.122 54.7404 337.236 23.3292 351.661 42.7724Z" fill="#F9C9C2"/>
<path d="M350.331 69.9062C350.603 69.9062 350.855 69.7332 350.947 69.4616C352.447 64.9308 349.324 60.2288 349.189 60.0298C348.989 59.734 348.584 59.6561 348.291 59.8551C347.994 60.0558 347.914 60.4588 348.115 60.7564C348.144 60.7996 351.013 65.1332 349.713 69.0534C349.603 69.3925 349.786 69.7609 350.125 69.8734C350.194 69.8959 350.264 69.9062 350.331 69.9062" fill="#4F4645"/>
<path d="M325.201 70.9785C325.357 70.9785 325.513 70.9232 325.637 70.8107C325.902 70.5702 325.923 70.1602 325.682 69.8938L319.994 63.6226C319.755 63.3579 319.344 63.3424 319.079 63.5794C318.814 63.8198 318.794 64.2299 319.036 64.4945L324.722 70.7657C324.849 70.9076 325.027 70.9785 325.201 70.9785" fill="#4F4645"/>
<path d="M319.084 69.209C319.169 69.2021 323.2 68.6727 323.2 68.6727C323.554 68.6277 323.805 68.3025 323.758 67.9461C323.71 67.5914 323.393 67.3389 323.03 67.3873L318.999 67.9167C318.645 67.9634 318.395 68.2886 318.44 68.6433C318.484 68.9702 318.764 69.209 319.084 69.209Z" fill="#4F4645"/>
<path d="M354.846 52.4854C355.151 52.4854 355.422 52.2708 355.483 51.9629C355.552 51.6117 355.322 51.2692 354.971 51.2L351.187 50.4544C350.833 50.3817 350.494 50.6135 350.424 50.963C350.355 51.3159 350.585 51.6567 350.936 51.7259L354.722 52.4732C354.763 52.4801 354.806 52.4854 354.846 52.4854" fill="#4F4645"/>
<path d="M339.003 54.6201C339.096 54.6201 339.191 54.5993 339.283 54.5561L344.343 52.1376C344.665 51.9836 344.802 51.5944 344.646 51.2726C344.494 50.9474 344.103 50.8159 343.781 50.9664L338.723 53.3849C338.399 53.5406 338.262 53.9281 338.418 54.2499C338.527 54.4834 338.761 54.6201 339.003 54.6201Z" fill="#4F4645"/>
<path d="M354.647 61.2627C354.704 61.2627 354.763 61.2558 354.822 61.2385C355.168 61.1416 355.369 60.7818 355.272 60.4375L354.267 56.8858L355.26 55.725C355.493 55.4534 355.46 55.0434 355.189 54.8116C354.917 54.578 354.509 54.6057 354.273 54.8825L353.056 56.3046C352.915 56.4707 352.865 56.6956 352.924 56.9032L354.021 60.7904C354.102 61.0759 354.363 61.2627 354.647 61.2627" fill="#4F4645"/>
<path d="M343.819 62.0547C343.876 62.0547 343.935 62.046 343.994 62.0304C344.34 61.9318 344.541 61.5737 344.444 61.2295L343.442 57.6848L344.885 56.0776C345.124 55.8112 345.101 55.4012 344.835 55.1607C344.568 54.9237 344.157 54.9445 343.92 55.2109L342.238 57.0845C342.089 57.2505 342.037 57.4806 342.096 57.6934L343.195 61.5824C343.274 61.8679 343.536 62.0547 343.819 62.0547" fill="#4F4645"/>
<path d="M347.772 74.769C347.25 75.3987 346.284 76.2965 345.291 75.9108C344.367 75.5509 343.584 73.7569 343.12 72.148L347.772 74.769ZM345.798 77.3086C347.788 77.3086 349.211 75.0129 349.281 74.9005C349.372 74.75 349.4 74.57 349.355 74.3988C349.31 74.2292 349.198 74.0839 349.044 73.9974L342.459 70.2883C342.241 70.1638 341.968 70.1793 341.764 70.3246C341.558 70.4717 341.458 70.7226 341.503 70.9717C341.603 71.508 342.542 76.2343 344.821 77.12C345.158 77.2515 345.485 77.3086 345.798 77.3086" fill="#4F4645"/>
<path d="M357.851 50.4071C357.851 50.4071 351.915 49.2359 347.753 49.402C343.593 49.5663 343.592 49.5663 343.592 49.5663L341.887 42.8782L341.927 50.1805C341.927 50.1805 338.989 50.6908 336.084 52.2184C333.18 53.746 331.254 55.6247 331.254 55.6247L328.483 50.0005L329.659 57.0883L326.296 60.998L321.196 56.2458L324.431 46.3572C324.431 46.3572 332.086 35.6158 332.678 35.486C333.27 35.3563 344.345 34.7197 344.345 34.7197C344.345 34.7197 353.882 38.4201 354.114 38.7349C354.346 39.0463 357.851 50.4071 357.851 50.4071Z" fill="#4F4645"/>
<path d="M348.655 93.1777C348.655 93.1777 372.433 104.142 389.733 136.495C407.033 168.845 402.997 199.655 402.997 199.655L382.813 219.295C382.813 219.295 378.777 304.427 378.777 306.735C378.777 309.041 378.55 324.147 376.82 324.147C375.09 324.147 360.901 209.105 360.901 209.105C360.901 209.105 352.635 120.78 348.655 93.1777" fill="#FFF8F0"/>
<path d="M325.201 179.66C325.201 179.66 340.349 172.796 345.435 172.296C350.521 171.794 362.372 181.389 362.372 181.389L353.414 215.701C353.414 215.701 318.098 215.751 315.211 205.757C312.325 195.761 325.201 179.66 325.201 179.66Z" fill="#F9C9C2"/>
<path d="M371.857 167.734C372.262 167.707 372.53 167.395 372.504 167.039L370.648 141.714C370.62 141.357 370.302 141.094 369.952 141.113C369.594 141.141 369.328 141.451 369.354 141.809L371.21 167.132C371.236 167.475 371.52 167.734 371.857 167.734" fill="#4F4645" fill-opacity="0.25"/>
<path d="M348.973 181.089L332.725 152.579C332.09 151.461 332.895 150.075 334.18 150.075C334.775 150.075 335.329 150.392 335.628 150.909L353.549 181.753L348.973 181.089Z" fill="#EE6161"/>
<path d="M359.938 183.328C360.256 183.328 360.533 183.096 360.58 182.773C360.631 182.416 360.386 182.088 360.031 182.038L342.235 179.456C341.866 179.405 341.551 179.65 341.5 180.005C341.449 180.359 341.693 180.688 342.048 180.74L359.846 183.321C359.877 183.325 359.908 183.328 359.938 183.328Z" fill="#4F4645"/>
<path d="M326.758 90.4102C326.758 90.4102 308.137 88.6992 283.917 106.345C257.379 125.681 240.635 174.396 251.879 199.48C263.124 224.565 323.115 225.425 323.115 225.425L332.356 172.529L319.515 169.642L326.758 90.4102" fill="#FFF8F0"/>
<path d="M315.347 217.575C315.347 217.575 311.325 323.05 308.948 326.875C306.571 330.699 267.514 321.902 264.685 318.966C261.855 316.03 271.591 195.091 271.591 195.091L315.347 217.575" fill="#FFF8F0"/>
<path d="M339.83 100.71C346.767 100.71 349.547 97.5562 349.673 97.4109C349.905 97.1375 349.874 96.7293 349.601 96.4957C349.329 96.2622 348.917 96.2951 348.686 96.5667C348.66 96.5978 345.637 99.9626 337.913 99.3329C327.173 98.4489 327.236 92.4631 327.244 92.2088C327.255 91.8507 326.976 91.5514 326.62 91.5376C326.249 91.5376 325.962 91.8075 325.947 92.1569C325.943 92.2313 325.763 99.6339 337.807 100.625C338.517 100.682 339.191 100.71 339.83 100.71" fill="#4F4645" fill-opacity="0.25"/>
<path d="M342.382 237.5L388.728 240.624C390.413 240.738 392.229 239.373 392.788 237.576L415.32 164.92C415.877 163.123 414.963 161.574 413.278 161.46L366.932 158.336C365.247 158.222 363.429 159.587 362.872 161.384L340.339 234.04C339.782 235.837 340.695 237.386 342.382 237.5" fill="#C45543"/>
<path d="M347.795 237.851L394.141 240.975C395.824 241.087 397.643 239.724 398.201 237.927L420.733 165.271C421.29 163.474 420.376 161.923 418.69 161.811L372.343 158.687C370.66 158.572 368.842 159.937 368.285 161.735L345.752 234.391C345.195 236.188 346.108 237.736 347.795 237.851Z" fill="#DD6B50"/>
<path d="M397.542 172.008C400.357 172.008 402.874 170.148 403.751 167.363L405.754 161.007C405.862 160.666 405.673 160.301 405.33 160.194C404.991 160.085 404.623 160.277 404.517 160.618L402.514 166.972C401.774 169.319 399.611 170.847 397.212 170.7L385.939 169.97C384.671 169.887 383.514 169.233 382.765 168.176C381.972 167.058 381.732 165.652 382.107 164.316L383.429 159.588C383.526 159.242 383.325 158.886 382.979 158.789C382.635 158.694 382.277 158.895 382.18 159.239L380.856 163.967C380.377 165.68 380.685 167.487 381.704 168.925C382.683 170.304 384.195 171.157 385.854 171.264L397.127 171.996C397.265 172.004 397.405 172.008 397.542 172.008" fill="#F79595"/>
<path d="M421.31 195.915C421.31 195.915 432.668 190.561 426.4 186.593C421.073 183.219 395.317 190.288 393.293 192.94C391.02 195.915 400.108 199.27 400.108 199.27C400.108 199.27 387.235 200.607 387.614 205.238C387.993 209.871 398.594 209.266 398.594 209.266C398.594 209.266 388.052 207.883 391.46 214.295C394.868 220.706 418.281 220.926 420.932 217.62C423.582 214.312 422.066 209.266 422.066 209.266C422.066 209.266 425.853 207.321 426.421 202.348C426.988 197.376 421.31 195.915 421.31 195.915" fill="#F9C9C2"/>
<path d="M402.568 198.145C402.621 198.141 421.364 196.563 421.364 196.563C421.722 196.534 421.987 196.219 421.957 195.863C421.926 195.506 421.646 195.242 421.257 195.271L402.514 196.849C402.156 196.878 401.891 197.193 401.921 197.549C401.948 197.889 402.234 198.145 402.568 198.145" fill="#4F4645"/>
<path d="M398.592 210.142C398.599 210.142 418.667 209.915 418.667 209.915C419.025 209.912 419.312 209.619 419.309 209.259C419.305 208.903 419.014 208.617 418.66 208.617C418.653 208.617 398.585 208.844 398.585 208.844C398.227 208.848 397.94 209.142 397.943 209.5C397.947 209.856 398.237 210.142 398.592 210.142Z" fill="#4F4645"/>
<path d="M272.181 148.27C277.518 148.27 282.381 154.095 284.489 157.024L282.09 156.138C275.317 153.383 269.466 150.002 269.593 148.909C269.599 148.841 269.869 148.551 271.044 148.36C271.423 148.3 271.803 148.27 272.181 148.27ZM306.694 166.562C306.957 166.562 307.206 166.401 307.303 166.138C307.427 165.802 307.254 165.428 306.919 165.306L286.584 157.797C285.566 156.166 278.741 145.798 270.836 147.08C270.248 147.175 268.451 147.464 268.304 148.763C267.992 151.495 277.514 155.676 281.621 157.348L285.901 158.929C285.946 158.944 306.469 166.522 306.469 166.522C306.543 166.549 306.619 166.562 306.694 166.562Z" fill="#4F4645" fill-opacity="0.25"/>
<path d="M301.975 273.874C301.44 293.078 300.013 313.988 298.39 315.367C296.518 315.72 282.9 312.895 273.897 310.83V271.12L301.975 273.874ZM298.054 316.647C298.342 316.647 298.575 316.63 298.746 316.597C301.698 316.007 302.859 289.22 303.289 273.305C303.298 272.964 303.044 272.675 302.703 272.642L273.31 269.76C273.134 269.746 272.947 269.801 272.812 269.924C272.677 270.047 272.599 270.222 272.599 270.405V311.347C272.599 311.65 272.807 311.911 273.103 311.978C275.283 312.482 293.473 316.647 298.054 316.647" fill="#4F4645" fill-opacity="0.25"/>
<path d="M317.43 144.025H299.22C297.528 144.025 296.156 142.655 296.156 140.963V136.932C296.156 135.241 297.528 133.869 299.22 133.869H317.43C319.122 133.869 320.494 135.241 320.494 136.932V140.963C320.494 142.655 319.122 144.025 317.43 144.025Z" fill="#EE6161"/>
<path d="M57.9178 119.692C57.9178 119.692 53.4299 99.6518 47.9212 99.2452C42.4108 98.8386 46.7309 115.372 46.7309 115.372L31.8121 109.666C31.8121 109.666 14.8327 104.932 11.4573 106.41C8.0801 107.887 13.639 113.394 13.639 113.394C13.639 113.394 1.55065 109.764 3.24616 115.659C4.94167 121.553 13.2134 124.943 13.2134 124.943C13.2134 124.943 1.39666 120.754 4.0645 127.661C5.50915 131.394 31.4955 147.13 49.0077 146.567C66.52 146.007 59.5303 132.5 59.5303 132.5L57.9178 119.692" fill="#E7A9A0"/>
<path d="M19.7268 128.684C19.5434 128.684 19.3618 128.606 19.2337 128.457C19.0002 128.184 19.033 127.775 19.3047 127.542L34.3394 114.696C34.611 114.464 35.0228 114.495 35.2546 114.767C35.4864 115.04 35.4553 115.45 35.1819 115.682L20.149 128.528C20.0261 128.633 19.8756 128.684 19.7268 128.684Z" fill="#4F4645"/>
<path d="M51.3314 136.005C51.0667 135.986 46.0165 135.538 43.6705 131.399C41.7189 127.96 42.2708 123.102 45.3089 116.96C45.4681 116.638 45.8539 116.505 46.1791 116.666C46.4992 116.825 46.6307 117.214 46.4715 117.536C43.6393 123.263 43.0736 127.707 44.7933 130.75C46.7933 134.29 51.3383 134.706 51.3833 134.711C51.7397 134.74 52.0062 135.053 51.9768 135.41C51.9491 135.749 51.6671 136.005 51.3314 136.005" fill="#4F4645"/>
<path d="M176.782 38.2833C176.782 38.2833 196.815 22.7538 213.914 33.3282C231.012 43.901 224.419 66.0464 224.419 66.0464C224.419 66.0464 245.651 71.8493 248.713 98.8218C251.774 125.794 226.13 130.903 226.13 130.903L189.272 109.069L176.782 38.2833" fill="#4F4645"/>
<path d="M235.888 458.109C235.888 458.109 153.609 438.81 144.019 376.616C132.219 300.105 153.124 262.618 153.124 262.618L206.879 326.771L223.011 404.298L244.269 419.675L256.097 444.744L235.888 458.109" fill="#DC9F96"/>
<path d="M280.051 413.113C279.859 410.082 277.17 407.734 273.926 407.772C261.106 407.926 232.351 406.703 232.381 409.042C232.417 412.025 240.959 441.876 240.959 441.876C240.959 441.876 223.208 442.947 226.549 455.269C229.111 464.722 240.543 475.574 245.723 480.11C247.369 481.552 248.524 483.388 249.063 485.437C251.377 494.245 258.928 518.46 271.971 518.646C287.916 518.877 286.016 512.506 285.978 509.524C285.947 506.961 281.352 433.786 280.051 413.113" fill="#4F4645"/>
<path d="M179.246 326.772C179.246 326.772 183.957 475.809 190.277 491.572C196.593 507.334 231.125 491.572 231.125 491.572L239.282 330.081L179.246 326.772" fill="#E7A9A0"/>
<path d="M144.019 218.402C144.019 218.402 138.174 251.418 138.174 276.034C138.174 300.65 135.292 327.669 138.174 330.07C141.058 332.472 169.682 340.534 204.284 338.733C238.886 336.932 249.267 328.853 248.691 325.987C248.113 323.124 244.077 320.707 244.077 320.707C244.077 320.707 246.383 249.544 237.156 230.497C227.929 211.449 188.592 207.289 188.592 207.289H146.289L144.019 218.402" fill="#EE6161"/>
<path d="M203.383 215.255C203.383 215.255 170.453 222.598 153.96 214.565C137.467 206.53 146.763 160.343 146.763 160.343C146.763 160.343 155.721 97.0848 168.574 95.7353C181.426 94.3875 192.768 96.0917 192.768 96.0917L208.623 149.848L203.383 215.255" fill="#EE6161"/>
<path d="M173.927 94.0104C173.927 94.0104 171.773 94.6385 168.574 95.7354L190.684 97.1177C190.684 97.1177 193.661 128.045 194.741 163.513C195.497 188.648 202.384 290.47 201.848 301.536L245.94 301.18C247.488 301.168 248.748 299.932 248.786 298.386C248.985 290.226 249.471 265.648 248.713 246.051C246.611 191.765 236.694 116.381 228.519 108.789C216.749 97.8617 187.576 94.2025 187.576 94.2025L173.927 94.0104" fill="#F5EDE3"/>
<path d="M137.736 291.892C136.749 278.416 154.847 177.697 157.925 145.678C161.853 104.951 168.15 96.2657 168.538 95.7518C160.107 98.6273 144.465 104.776 141.586 111.415C138.145 119.377 132.897 245.528 131.562 278.971C131.359 284.037 133.671 288.864 137.736 291.892" fill="#F5EDE3"/>
<path d="M196.927 207.402C196.927 207.402 165.764 212.554 159.607 218.226C153.449 223.895 168.385 245.652 172.223 249.179C176.062 252.707 203.412 234.802 203.412 234.802L207.367 219.169L196.927 207.402" fill="#E7A9A0"/>
<path d="M159.607 218.226C159.607 218.226 146.585 236.84 148.737 244.524C150.889 252.204 166.58 228.456 166.58 228.456L159.607 218.226Z" fill="#E7A9A0"/>
<path d="M182.55 244.016C182.55 244.016 198.683 241.738 195.502 247.586C192.318 253.435 175.076 252.418 172.223 249.179C169.372 245.94 178.372 237.105 178.372 237.105L182.55 244.016Z" fill="#E7A9A0"/>
<path d="M184.637 245.779C184.375 245.779 184.128 245.62 184.029 245.361C183.901 245.027 184.071 244.651 184.405 244.523L187.932 243.182L185.192 241.153C184.903 240.94 184.842 240.534 185.055 240.246C185.268 239.959 185.673 239.897 185.964 240.111L189.659 242.845C189.848 242.985 189.948 243.219 189.915 243.454C189.882 243.689 189.725 243.888 189.503 243.973L184.867 245.738C184.791 245.765 184.713 245.779 184.637 245.779" fill="#4F4645"/>
<path d="M161.481 234.442C161.403 234.442 161.323 234.43 161.247 234.399C160.913 234.271 160.747 233.894 160.875 233.56C161.171 232.794 163.817 226.027 165.407 224.676C165.678 224.446 166.088 224.479 166.32 224.75C166.552 225.024 166.519 225.432 166.246 225.666C165.239 226.522 163.159 231.249 162.086 234.029C161.986 234.285 161.74 234.442 161.481 234.442" fill="#4F4645"/>
<path d="M166.408 242.307C166.309 242.307 166.209 242.284 166.116 242.237C165.797 242.075 165.668 241.684 165.83 241.365L171.431 230.307C171.591 229.988 171.981 229.86 172.303 230.021C172.621 230.182 172.751 230.575 172.588 230.893L166.988 241.952C166.873 242.177 166.645 242.307 166.408 242.307" fill="#4F4645"/>
<path d="M160.574 69.6367C160.574 69.6367 154.662 62.9187 156.536 52.6608C157.804 45.7075 160.937 43.4947 160.937 43.4947C160.937 43.4947 156.347 33.915 170.403 34.6866C184.46 35.46 192.64 42.4826 192.64 42.4826C192.64 42.4826 199.112 39.4151 201.891 46.9515C204.67 54.4878 201.632 65.507 201.632 65.507L160.574 69.6367Z" fill="#4F4645"/>
<path d="M191.287 81.6584L190.618 98.8212C190.618 98.8212 187.329 103.634 177.258 104.058C169.754 104.373 167.535 100.439 167.535 100.439L169.934 85.4923L188.22 82.2121L191.287 81.6584" fill="#E7A9A0"/>
<path d="M191.303 80.6103C191.24 81.0774 191.04 81.6241 190.739 82.247C186.564 90.6709 172.908 93.7107 168.574 93.9287L169.934 85.4927L191.303 80.6103Z" fill="#4F4645"/>
<path d="M167.635 46.2211C167.635 46.2211 157.787 67.3891 160.87 79.4826C163.955 91.5778 174.946 89.9446 181.55 87.775C188.154 85.6072 191.289 81.6625 191.289 81.6625C191.289 81.6625 197.36 83.8805 201.587 78.2888C205.812 72.6953 203.447 66.1019 199.988 64.524C196.53 62.9427 192.317 65.3683 192.317 65.3683L195.72 59.2281C195.72 59.2281 182.765 27.3196 167.635 46.2211" fill="#E7A9A0"/>
<path d="M192.317 65.3681C192.317 65.3681 183.092 67.0948 176.844 56.7694C170.599 46.4441 171.244 42.2486 171.244 42.2486L164.728 52.7279C164.728 52.7279 163.408 45.3801 166.405 40.7503C169.4 36.1188 172.429 37.1309 172.429 37.1309L192.64 42.4821L197.753 58.8127L192.317 65.3681" fill="#4F4645"/>
<path d="M167.993 73.3867C167.713 73.3867 167.453 73.2016 167.37 72.9196C166.036 68.3347 169.33 63.7517 169.471 63.5579C169.68 63.269 170.085 63.205 170.377 63.4178C170.666 63.6271 170.73 64.0337 170.519 64.3226C170.488 64.3659 167.462 68.5926 168.616 72.5563C168.716 72.9005 168.519 73.2604 168.175 73.359C168.114 73.378 168.054 73.3867 167.993 73.3867" fill="#4F4645"/>
<path d="M193.068 75.3818C192.905 75.3818 192.741 75.3213 192.614 75.1984C192.358 74.9476 192.353 74.5358 192.602 74.2797L198.517 68.2209C198.768 67.9648 199.178 67.9613 199.434 68.2087C199.69 68.4596 199.696 68.8697 199.446 69.1257L193.531 75.1863C193.405 75.3178 193.235 75.3818 193.068 75.3818" fill="#4F4645"/>
<path d="M199.247 73.835C199.211 73.835 199.175 73.8332 199.138 73.8263L195.128 73.1498C194.775 73.091 194.536 72.7571 194.597 72.4024C194.657 72.0495 194.991 71.8108 195.344 71.8713L199.355 72.546C199.708 72.6066 199.945 72.9405 199.886 73.2952C199.832 73.6118 199.557 73.835 199.247 73.835" fill="#4F4645"/>
<path d="M164.119 55.8105C163.806 55.8105 163.531 55.5822 163.479 55.2638C163.424 54.9092 163.664 54.577 164.017 54.5216L167.825 53.9143C168.182 53.8521 168.512 54.0977 168.569 54.4507C168.624 54.8053 168.384 55.1393 168.031 55.1946L164.221 55.8019C164.187 55.8071 164.152 55.8105 164.119 55.8105" fill="#4F4645"/>
<path d="M179.874 58.5254C179.773 58.5254 179.67 58.5012 179.574 58.451L173.387 55.2105C173.071 55.0427 172.948 54.6517 173.114 54.3351C173.28 54.0184 173.673 53.8939 173.99 54.0617L180.176 57.3022C180.493 57.4683 180.616 57.861 180.45 58.1776C180.334 58.3991 180.109 58.5254 179.874 58.5254" fill="#4F4645"/>
<path d="M163.998 64.5908C163.931 64.5908 163.865 64.5805 163.797 64.5597C163.458 64.449 163.27 64.0839 163.38 63.7431L164.514 60.2292L163.564 59.0337C163.341 58.7534 163.387 58.3451 163.668 58.1219C163.951 57.8988 164.358 57.9454 164.579 58.2257L165.746 59.6946C165.881 59.8641 165.922 60.089 165.855 60.2967L164.614 64.141C164.526 64.4161 164.272 64.5908 163.998 64.5908" fill="#4F4645"/>
<path d="M174.789 65.7793C174.723 65.7793 174.655 65.7689 174.59 65.7481C174.249 65.6374 174.06 65.2723 174.171 64.9315L175.301 61.4263L173.918 59.7671C173.688 59.4921 173.726 59.082 174.001 58.8536C174.276 58.6235 174.685 58.6599 174.915 58.9349L176.527 60.8709C176.669 61.0422 176.714 61.2723 176.647 61.4851L175.406 65.3294C175.318 65.6045 175.064 65.7793 174.789 65.7793" fill="#4F4645"/>
<path d="M171.017 79.0674C170.484 79.0674 169.962 78.9515 169.477 78.6764C169.164 78.4999 169.055 78.1055 169.231 77.7923C169.408 77.4826 169.806 77.3701 170.116 77.5483C171.851 78.5293 174.993 75.9947 176.057 74.9359C176.311 74.6816 176.721 74.685 176.974 74.9359C177.226 75.1919 177.226 75.602 176.972 75.8546C176.586 76.2369 173.655 79.0674 171.017 79.0674Z" fill="#4F4645"/>
<path d="M222.856 104.727C222.856 104.727 272.831 136.464 272.435 185.414C272.039 234.365 205.796 249.012 205.796 249.012L185.422 198.587L219.46 179.125L222.856 104.727" fill="#F5EDE3"/>
<path d="M194.922 193.805C194.725 193.805 194.531 193.716 194.405 193.549C194.187 193.265 194.242 192.857 194.528 192.64C195.4 191.976 215.974 176.348 224.201 173.438C224.543 173.318 224.912 173.495 225.03 173.832C225.149 174.17 224.973 174.542 224.633 174.661C216.597 177.504 195.526 193.511 195.313 193.671C195.196 193.761 195.059 193.805 194.922 193.805" fill="#D3CCC5"/>
<path d="M218.121 165.528C217.781 165.528 217.54 165.646 217.367 165.758C215.208 167.151 214.639 173.862 214.568 177.776C216.997 175.035 220.787 170.064 220.301 167.317C220.177 166.622 219.767 166.115 219.049 165.77C218.678 165.592 218.372 165.528 218.121 165.528ZM213.919 180.08C213.839 180.08 213.758 180.066 213.68 180.035C213.438 179.938 213.275 179.706 213.27 179.445C213.242 178.175 213.097 166.969 216.663 164.668C217.262 164.281 218.26 163.954 219.611 164.601C220.717 165.13 221.379 165.969 221.578 167.092C222.383 171.628 214.711 179.549 214.384 179.885C214.258 180.011 214.09 180.08 213.919 180.08" fill="#D3CCC5"/>
<path d="M175.737 104.778C169.355 104.778 167.073 100.939 166.972 100.763C166.794 100.451 166.901 100.055 167.211 99.8769C167.521 99.697 167.919 99.8042 168.097 100.117C168.189 100.275 170.479 104.038 177.197 103.412C183.569 102.825 190.183 98.3302 190.249 98.2869C190.547 98.0845 190.948 98.1606 191.151 98.453C191.355 98.7489 191.279 99.1537 190.985 99.3561C190.703 99.5482 184.029 104.086 177.315 104.704C176.763 104.754 176.239 104.778 175.737 104.778" fill="#D3CCC5"/>
<path d="M198.255 117.265C198.189 117.265 198.121 117.256 198.054 117.242C197.59 117.131 197.301 116.666 197.412 116.201C199.18 108.725 198.826 102.941 196.362 99.0067C194.215 95.5811 191.243 94.8839 191.118 94.8562C190.653 94.7524 190.357 94.2922 190.459 93.8268C190.561 93.3614 191.025 93.0655 191.481 93.1641C191.635 93.197 195.246 94.0067 197.796 98.0379C200.544 102.379 200.981 108.624 199.095 116.599C199 116.997 198.646 117.265 198.255 117.265" fill="#F79595"/>
<path d="M219.172 144.581L201.024 146.116C199.339 146.259 197.857 145.007 197.715 143.322L197.376 139.306C197.232 137.619 198.483 136.138 200.168 135.995L218.315 134.46C220.002 134.318 221.483 135.569 221.627 137.256L221.966 141.271C222.108 142.957 220.857 144.439 219.172 144.581" fill="#F79595"/>
<path d="M156.168 137.105C155.694 137.105 155.308 136.723 155.303 136.249C155.289 134.903 155.114 103.183 167.026 94.5169C167.41 94.2367 167.953 94.3215 168.233 94.7073C168.515 95.0931 168.431 95.6346 168.043 95.9149C156.849 104.06 157.029 135.912 157.033 136.232C157.038 136.709 156.654 137.1 156.176 137.105C156.175 137.105 156.171 137.105 156.168 137.105" fill="#F79595"/>
<path d="M196.586 145.765C196.469 145.765 196.351 145.742 196.239 145.692C195.801 145.502 195.602 144.991 195.792 144.554C195.879 144.358 204.251 124.995 198.062 118.297C197.291 117.462 196.377 117.097 195.265 117.199C189.631 117.692 180.863 129.522 177.958 134.04C177.701 134.441 177.164 134.555 176.763 134.299C176.361 134.041 176.246 133.507 176.503 133.104C176.948 132.412 187.484 116.143 195.114 115.476C196.765 115.322 198.189 115.886 199.332 117.123C206.286 124.647 197.744 144.41 197.379 145.247C197.235 145.573 196.919 145.765 196.586 145.765" fill="#F79595"/>
<path d="M181.095 135.31H174.417C173.939 135.31 173.552 134.922 173.552 134.445C173.552 133.967 173.939 133.579 174.417 133.579H181.095C181.574 133.579 181.96 133.967 181.96 134.445C181.96 134.922 181.574 135.31 181.095 135.31Z" fill="#F79595"/>
<path d="M197.571 148.61C197.28 148.61 196.997 148.465 196.832 148.199L193.339 142.507C193.09 142.1 193.216 141.567 193.625 141.316C194.028 141.067 194.562 141.192 194.815 141.602L198.308 147.294C198.557 147.7 198.429 148.233 198.023 148.484C197.882 148.571 197.725 148.61 197.571 148.61Z" fill="#F79595"/>
<path d="M209.216 255.428V290.447L239.621 289.276V255.305L209.216 255.428ZM208.567 291.771C208.4 291.771 208.239 291.705 208.118 291.589C207.99 291.466 207.919 291.296 207.919 291.122V254.782C207.919 254.426 208.208 254.135 208.564 254.134L240.267 254.004C240.441 254.004 240.606 254.073 240.727 254.194C240.85 254.315 240.919 254.481 240.919 254.653V289.9C240.919 290.248 240.642 290.535 240.294 290.549L208.592 291.771C208.585 291.771 208.576 291.771 208.567 291.771" fill="#D3CCC5"/>
<path d="M44.1373 150.605C44.1373 150.605 61.916 175.074 94.9837 178.782C128.05 182.491 148.496 164.389 148.496 164.389L153.941 102.271C153.941 102.271 119.563 118.308 102.572 121.794C85.5823 125.28 59.7759 114.898 59.7759 114.898L44.1373 150.605" fill="#F5EDE3"/>
<path d="M102.839 123.735C101.968 128.396 100.956 136.719 103.129 138.984C103.579 139.453 104.131 139.609 104.878 139.474C105.648 139.334 106.176 138.948 106.489 138.296C107.916 135.323 104.856 127.849 102.839 123.735ZM104.408 140.816C103.541 140.816 102.785 140.5 102.193 139.882C98.7659 136.311 101.605 123.142 101.939 121.652C101.999 121.387 102.216 121.188 102.484 121.15C102.75 121.112 103.015 121.247 103.143 121.486C103.422 122 109.929 134.131 107.659 138.856C107.16 139.896 106.302 140.534 105.11 140.751C104.87 140.794 104.634 140.816 104.408 140.816Z" fill="#D3CCC5"/>
<path d="M161.332 137.925C161.332 140.776 159.021 143.088 156.168 143.088C153.316 143.088 151.005 140.776 151.005 137.925C151.005 135.072 153.316 132.761 156.168 132.761C159.021 132.761 161.332 135.072 161.332 137.925Z" fill="#F79595"/>
<path d="M158.178 137.926C158.178 139.035 157.278 139.935 156.167 139.935C155.058 139.935 154.159 139.035 154.159 137.926C154.159 136.815 155.058 135.916 156.167 135.916C157.278 135.916 158.178 136.815 158.178 137.926Z" fill="#DD6B50"/>
</g>
</svg>
